<svg xmlns="http://www.w3.org/2000/svg" viewBox="0 0 200 200">
  <style>
    @import url('https://fonts.googleapis.com/css2?family=Butterfly+Kids&display=swap');
    text { font-family: 'Butterfly Kids', cursive; }
  </style>
  <rect width="200" height="200" fill="#ffffff"/>
  <g transform="translate(60 40) scale(5)">
    <path fill="#28a745" d="M8 6a3 3 0 1 0 0 6 3 3 0 0 0 0-6zm0 1a2 2 0 1 1 0 4 2 2 0 0 1 0-4z"/>
    <path fill="#28a745" d="M8 0a2 2 0 0 0-2 2v2a2 2 0 1 0 4 0V2a2 2 0 0 0-2-2zm5.657 2.343a2 2 0 0 0-2.828 0l-1.414 1.414a2 2 0 1 0 2.828 2.828l1.414-1.414a2 2 0 0 0 0-2.828zM16 8a2 2 0 0 0-2-2h-2a2 2 0 1 0 0 4h2a2 2 0 0 0 2-2zm-2.343 5.657a2 2 0 0 0 0-2.828l-1.414-1.414a2 2 0 1 0-2.828 2.828l1.414 1.414a2 2 0 0 0 2.828 0zM8 16a2 2 0 0 0 2-2v-2a2 2 0 1 0-4 0v2a2 2 0 0 0 2 2zM2.343 13.657a2 2 0 0 0 2.828 0l1.414-1.414a2 2 0 1 0-2.828-2.828l-1.414 1.414a2 2 0 0 0 0 2.828zM0 8a2 2 0 0 0 2 2h2a2 2 0 1 0 0-4H2a2 2 0 0 0-2 2zm2.343-5.657a2 2 0 0 0 0 2.828l1.414 1.414a2 2 0 1 0 2.828-2.828L5.171 2.343a2 2 0 0 0-2.828 0z"/>
  </g>
  <text x="100" y="170" font-size="24" text-anchor="middle" fill="#333">FloraGatos</text>
</svg>
